<?xml version="1.0" encoding="utf-8"?>
<svg id="svg8" version="1.1" viewBox="0 0 55 55" height="55px" width="55px" xmlns="http://www.w3.org/2000/svg" xmlns:bx="https://boxy-svg.com"><defs id="defs2"><bx:export><bx:file format="svg"/></bx:export></defs><g id="g41" style="display: inline; transform-origin: 168.028px 195.612px;" transform="matrix(0.479052, 0, 0, 0.479052, -168.027512, -195.611803)"><g id="g225"><path id="path50" style="color:#000000;fill:#18181b;stroke-width:1.24118;stroke-linecap:round;stroke-miterlimit:25;-inkscape-stroke:none;paint-order:stroke fill markers" d="m 231.11819,201.30347 v 14.54899 5.1e-4 l 9.76943,9.76943 26.82007,26.81956 -23.1128,22.97327 v 15.82694 l 38.23126,-38.23074 z m -15.83262,4.45038 -47.2581,47.25758 40.85022,41.02334 -12.99042,-28.78791 -12.74134,-12.8049 32.13964,-32.13913 z"/><path style="color:#000000;fill:#18181b;-inkscape-stroke:none;paint-order:stroke fill markers" d="m 234.85158,285.09974 -12.25972,12.14047 0.14056,10.47585 2.70526,2.70578 9.02477,-9.02426 z" id="path13"/><path style="color:#000000;fill:#18181b;-inkscape-stroke:none;paint-order:stroke fill markers" d="m 223.90857,265.5864 c -1.61207,-0.029 -3.25004,0.69161 -4.13669,2.07481 -1.53582,2.15612 -0.87518,5.55786 1.45572,6.87917 2.05697,1.2742 5.06632,0.76578 6.45852,-1.25936 1.38927,-1.87803 1.21317,-4.78628 -0.55966,-6.36447 -0.0648,-0.0632 -0.12951,-0.12596 -0.1943,-0.18913 -0.8297,-0.75015 -1.92059,-1.12114 -3.02359,-1.14102 z" id="path12"/><path style="color:#000000;fill:#18181b;-inkscape-stroke:none;paint-order:stroke fill markers" d="m 211.75609,260.30318 -0.25425,0.11214 -10.78177,4.80053 11.29182,24.95321 3.9579,-5.06531 1.79575,-10.26347 -0.99012,-5.96811 z" id="path11"/><path style="color:#000000;fill:#18181b;-inkscape-stroke:none;paint-order:stroke fill markers" d="m 249.22486,248.31142 -1.30121,0.3452 -1.95285,1.06453 -0.83665,3.20859 -8.11991,-3.87366 -9.55549,4.25452 3.37992,22.09726 -15.65153,15.55704 v 9.2064 l 4.45296,4.45296 v -8.29665 l 17.6289,-17.52247 -0.0646,19.84997 3.89123,-3.89123 v -25.89713 l 1.93994,-2.60242 6.85022,-17.12454 z" id="path10"/><path style="color:#000000;fill:#18181b;-inkscape-stroke:none;paint-order:stroke fill markers" d="m 235.1296,226.53187 -0.44597,0.28474 -10.34097,6.57583 -3.36724,12.03802 -5.9986,5.99808 0.27079,0.76637 20.83593,-4.93717 -1.00717,-2.58176 -2.31769,-3.36 3.06906,-3.20704 z" id="path9"/><path style="color:#000000;fill:#18181b;-inkscape-stroke:none;paint-order:stroke fill markers" d="m 225.42683,195.61231 -5.2e-4,-5.1e-4 -6.6399,6.64093 v 29.54458 l 15.92154,-7.52576 -7.09008,-7.62098 1e-5,-18.84722 z" id="path18"/></g></g></svg>