{
	"asset":{
		"generator":"Khronos glTF Blender I/O v3.6.28",
		"version":"2.0"
	},
	"extensionsUsed":[
		"KHR_materials_specular",
		"KHR_materials_ior"
	],
	"scene":0,
	"scenes":[
		{
			"name":"Scene",
			"nodes":[
				0,
				1,
				2,
				3,
				4,
				5,
				6,
				7
			]
		}
	],
	"nodes":[
		{
			"mesh":0,
			"name":"path50",
			"rotation":[
				0.7071068286895752,
				0,
				0,
				0.7071068286895752
			],
			"scale":[
				917.5697021484375,
				452.6485900878906,
				917.5697021484375
			],
			"translation":[
				-27.039188385009766,
				4.429991245269775,
				-0.000347972585586831
			]
		},
		{
			"mesh":1,
			"name":"path13",
			"rotation":[
				0.7071068286895752,
				0,
				0,
				0.7071068286895752
			],
			"scale":[
				917.5697021484375,
				452.6485900878906,
				917.5697021484375
			],
			"translation":[
				2.581651210784912,
				-46.366580963134766,
				-0.0003502140461932868
			]
		},
		{
			"mesh":2,
			"name":"path12",
			"rotation":[
				0.7071068286895752,
				0,
				0,
				0.7071068286895752
			],
			"scale":[
				917.5697021484375,
				452.6485900878906,
				917.5697021484375
			],
			"translation":[
				-0.9354731440544128,
				-15.849149703979492,
				-0.00034877407597377896
			]
		},
		{
			"mesh":3,
			"name":"path11",
			"rotation":[
				0.7071068286895752,
				0,
				0,
				0.7071068286895752
			],
			"scale":[
				917.5697021484375,
				452.6485900878906,
				917.5697021484375
			],
			"translation":[
				-12.743748664855957,
				-18.72856330871582,
				-0.0003489697992336005
			]
		},
		{
			"mesh":4,
			"name":"path10",
			"rotation":[
				0.7071068286895752,
				0,
				0,
				0.7071068286895752
			],
			"scale":[
				917.5697021484375,
				452.6485900878906,
				917.5697021484375
			],
			"translation":[
				9.8674955368042,
				-18.713802337646484,
				-0.00034896560828201473
			]
		},
		{
			"mesh":5,
			"name":"path9",
			"rotation":[
				0.7071068286895752,
				0,
				0,
				0.7071068286895752
			],
			"scale":[
				917.5697021484375,
				452.6485900878906,
				917.5697021484375
			],
			"translation":[
				3.066168785095215,
				12.013696670532227,
				-0.00034768323530443013
			]
		},
		{
			"mesh":6,
			"name":"path18",
			"rotation":[
				0.7071068286895752,
				0,
				0,
				0.7071068286895752
			],
			"scale":[
				917.5697021484375,
				452.6485900878906,
				917.5697021484375
			],
			"translation":[
				0.11057189106941223,
				40.70244216918945,
				-0.0003463870380073786
			]
		},
		{
			"mesh":7,
			"name":"path50.001",
			"rotation":[
				0.7071068286895752,
				0,
				0,
				0.7071068286895752
			],
			"scale":[
				917.5697021484375,
				452.6485900878906,
				917.5697021484375
			],
			"translation":[
				23.099477767944336,
				7.836373805999756,
				-0.0003478086437098682
			]
		}
	],
	"materials":[
		{
			"doubleSided":true,
			"extensions":{
				"KHR_materials_specular":{
					"specularColorFactor":[
						1.0455532636379667,
						1.0455532636379667,
						1.0455532636379667
					]
				},
				"KHR_materials_ior":{
					"ior":1.4500000476837158
				}
			},
			"name":"ld-logo",
			"pbrMetallicRoughness":{
				"baseColorTexture":{
					"index":0
				},
				"metallicFactor":0.26818180084228516,
				"roughnessFactor":0.418181836605072
			}
		}
	],
	"meshes":[
		{
			"name":"path50",
			"primitives":[
				{
					"attributes":{
						"POSITION":0,
						"TEXCOORD_0":1
					},
					"indices":2,
					"material":0
				}
			]
		},
		{
			"name":"path13",
			"primitives":[
				{
					"attributes":{
						"POSITION":3,
						"TEXCOORD_0":4
					},
					"indices":5,
					"material":0
				}
			]
		},
		{
			"name":"path12",
			"primitives":[
				{
					"attributes":{
						"POSITION":6,
						"TEXCOORD_0":7
					},
					"indices":8,
					"material":0
				}
			]
		},
		{
			"name":"path11",
			"primitives":[
				{
					"attributes":{
						"POSITION":9,
						"TEXCOORD_0":10
					},
					"indices":11,
					"material":0
				}
			]
		},
		{
			"name":"path10",
			"primitives":[
				{
					"attributes":{
						"POSITION":12,
						"TEXCOORD_0":13
					},
					"indices":14,
					"material":0
				}
			]
		},
		{
			"name":"path9",
			"primitives":[
				{
					"attributes":{
						"POSITION":15,
						"TEXCOORD_0":16
					},
					"indices":17,
					"material":0
				}
			]
		},
		{
			"name":"path18",
			"primitives":[
				{
					"attributes":{
						"POSITION":18,
						"TEXCOORD_0":19
					},
					"indices":20,
					"material":0
				}
			]
		},
		{
			"name":"path50.001",
			"primitives":[
				{
					"attributes":{
						"POSITION":21,
						"TEXCOORD_0":22
					},
					"indices":23,
					"material":0
				}
			]
		}
	],
	"textures":[
		{
			"sampler":0,
			"source":0
		}
	],
	"images":[
		{
			"mimeType":"image/png",
			"name":"tex.png",
			"uri":"tex.png"
		}
	],
	"accessors":[
		{
			"bufferView":0,
			"componentType":5126,
			"count":42,
			"max":[
				0.01870330423116684,
				0.014999999664723873,
				0.04859817028045654
			],
			"min":[
				-0.031706370413303375,
				-0.014999999664723873,
				-0.04555016756057739
			],
			"type":"VEC3"
		},
		{
			"bufferView":1,
			"componentType":5126,
			"count":42,
			"type":"VEC2"
		},
		{
			"bufferView":2,
			"componentType":5123,
			"count":60,
			"type":"SCALAR"
		},
		{
			"bufferView":3,
			"componentType":5126,
			"count":34,
			"max":[
				0.007292293012142181,
				0.014999999664723873,
				0.010714495554566383
			],
			"min":[
				-0.005785010755062103,
				-0.014999999664723873,
				-0.016290610656142235
			],
			"type":"VEC3"
		},
		{
			"bufferView":4,
			"componentType":5126,
			"count":34,
			"type":"VEC2"
		},
		{
			"bufferView":5,
			"componentType":5123,
			"count":48,
			"type":"SCALAR"
		},
		{
			"bufferView":6,
			"componentType":5126,
			"count":277,
			"max":[
				0.004462379962205887,
				0.014999999664723873,
				0.006442897021770477
			],
			"min":[
				-0.005838010460138321,
				-0.014999999664723873,
				-0.003833003342151642
			],
			"type":"VEC3"
		},
		{
			"bufferView":7,
			"componentType":5126,
			"count":277,
			"type":"VEC2"
		},
		{
			"bufferView":8,
			"componentType":5123,
			"count":540,
			"type":"SCALAR"
		},
		{
			"bufferView":9,
			"componentType":5126,
			"count":50,
			"max":[
				0.005768965929746628,
				0.014999999664723873,
				0.019236542284488678
			],
			"min":[
				-0.012413222342729568,
				-0.014999999664723873,
				-0.012614302337169647
			],
			"type":"VEC3"
		},
		{
			"bufferView":10,
			"componentType":5126,
			"count":50,
			"type":"VEC2"
		},
		{
			"bufferView":11,
			"componentType":5123,
			"count":72,
			"type":"SCALAR"
		},
		{
			"bufferView":12,
			"componentType":5126,
			"count":128,
			"max":[
				0.015388727188110352,
				0.014999999664723873,
				0.03466856852173805
			],
			"min":[
				-0.02162390947341919,
				-0.014999999664723873,
				-0.02538701519370079
			],
			"type":"VEC3"
		},
		{
			"bufferView":13,
			"componentType":5126,
			"count":128,
			"type":"VEC2"
		},
		{
			"bufferView":14,
			"componentType":5123,
			"count":192,
			"type":"SCALAR"
		},
		{
			"bufferView":15,
			"componentType":5126,
			"count":74,
			"max":[
				0.008078381419181824,
				0.014999999664723873,
				0.012242533266544342
			],
			"min":[
				-0.014435917139053345,
				-0.014999999664723873,
				-0.015126161277294159
			],
			"type":"VEC3"
		},
		{
			"bufferView":16,
			"componentType":5126,
			"count":74,
			"type":"VEC2"
		},
		{
			"bufferView":17,
			"componentType":5123,
			"count":108,
			"type":"SCALAR"
		},
		{
			"bufferView":18,
			"componentType":5126,
			"count":42,
			"max":[
				0.009832151234149933,
				0.014999999664723873,
				0.021755248308181763
			],
			"min":[
				-0.00715116411447525,
				-0.014999999664723873,
				-0.016835272312164307
			],
			"type":"VEC3"
		},
		{
			"bufferView":19,
			"componentType":5126,
			"count":42,
			"type":"VEC2"
		},
		{
			"bufferView":20,
			"componentType":5123,
			"count":60,
			"type":"SCALAR"
		},
		{
			"bufferView":21,
			"componentType":5126,
			"count":50,
			"max":[
				0.036105163395404816,
				0.014999999664723873,
				0.04933236539363861
			],
			"min":[
				-0.019051112234592438,
				-0.014999999664723873,
				-0.04658392071723938
			],
			"type":"VEC3"
		},
		{
			"bufferView":22,
			"componentType":5126,
			"count":50,
			"type":"VEC2"
		},
		{
			"bufferView":23,
			"componentType":5123,
			"count":72,
			"type":"SCALAR"
		}
	],
	"bufferViews":[
		{
			"buffer":0,
			"byteLength":504,
			"byteOffset":0,
			"target":34962
		},
		{
			"buffer":0,
			"byteLength":336,
			"byteOffset":504,
			"target":34962
		},
		{
			"buffer":0,
			"byteLength":120,
			"byteOffset":840,
			"target":34963
		},
		{
			"buffer":0,
			"byteLength":408,
			"byteOffset":960,
			"target":34962
		},
		{
			"buffer":0,
			"byteLength":272,
			"byteOffset":1368,
			"target":34962
		},
		{
			"buffer":0,
			"byteLength":96,
			"byteOffset":1640,
			"target":34963
		},
		{
			"buffer":0,
			"byteLength":3324,
			"byteOffset":1736,
			"target":34962
		},
		{
			"buffer":0,
			"byteLength":2216,
			"byteOffset":5060,
			"target":34962
		},
		{
			"buffer":0,
			"byteLength":1080,
			"byteOffset":7276,
			"target":34963
		},
		{
			"buffer":0,
			"byteLength":600,
			"byteOffset":8356,
			"target":34962
		},
		{
			"buffer":0,
			"byteLength":400,
			"byteOffset":8956,
			"target":34962
		},
		{
			"buffer":0,
			"byteLength":144,
			"byteOffset":9356,
			"target":34963
		},
		{
			"buffer":0,
			"byteLength":1536,
			"byteOffset":9500,
			"target":34962
		},
		{
			"buffer":0,
			"byteLength":1024,
			"byteOffset":11036,
			"target":34962
		},
		{
			"buffer":0,
			"byteLength":384,
			"byteOffset":12060,
			"target":34963
		},
		{
			"buffer":0,
			"byteLength":888,
			"byteOffset":12444,
			"target":34962
		},
		{
			"buffer":0,
			"byteLength":592,
			"byteOffset":13332,
			"target":34962
		},
		{
			"buffer":0,
			"byteLength":216,
			"byteOffset":13924,
			"target":34963
		},
		{
			"buffer":0,
			"byteLength":504,
			"byteOffset":14140,
			"target":34962
		},
		{
			"buffer":0,
			"byteLength":336,
			"byteOffset":14644,
			"target":34962
		},
		{
			"buffer":0,
			"byteLength":120,
			"byteOffset":14980,
			"target":34963
		},
		{
			"buffer":0,
			"byteLength":600,
			"byteOffset":15100,
			"target":34962
		},
		{
			"buffer":0,
			"byteLength":400,
			"byteOffset":15700,
			"target":34962
		},
		{
			"buffer":0,
			"byteLength":144,
			"byteOffset":16100,
			"target":34963
		}
	],
	"samplers":[
		{
			"magFilter":9728,
			"minFilter":9984
		}
	],
	"buffers":[
		{
			"byteLength":16244,
			"uri":"LD3D.bin"
		}
	]
}
